# xmcd
#
# Track frame offsets: 
#        150
#        24647
#        46515
#        67406
#        88624
#        109019
#        128199
#        147209
#        170595
#        190219
#        210261
#        230839
#        253039
#
# Disc length: 3632 seconds
#
# Revision: 0
# Processed by: cddbd v1.5.2PL0 Copyright (c) Steve Scherf et al.
# Submitted via: ExactAudioCopyFreeDBPlugin 1.0
#
DISCID=b80e2e0d
DTITLE=谭艳 - 舍爱
DYEAR=2012
DGENRE=Bass
TTITLE0=光明
TTITLE1=如果没有你
TTITLE2=如果爱你只有一次
TTITLE3=祝我幸福
TTITLE4=我是真的真的爱你我的宝贝
TTITLE5=十一年
TTITLE6=想念你
TTITLE7=唱不完的情唱不完的爱
TTITLE8=囚鸟
TTITLE9=需要人陪
TTITLE10=往事
TTITLE11=祝你一路顺风
TTITLE12=北京北京
EXTD=
EXTT0=
EXTT1=
EXTT2=
EXTT3=
EXTT4=
EXTT5=
EXTT6=
EXTT7=
EXTT8=
EXTT9=
EXTT10=
EXTT11=
EXTT12=
PLAYORDER=
